<?xml version="1.0" encoding="utf-8"?>
<svg x="0pt" y="0pt" width="64pt" height="64pt" viewBox="0 0 64 64" xmlns="http://www.w3.org/2000/svg" xmlns:xlink="http://www.w3.org/1999/xlink">
  <g id="1">
    <title>Layer 1</title>
    <defs>
      <title>Text</title>
      <g id="2">
        <defs>
          <path id="3" d="M6.575,35.2084 C7.555,35.2084,8.375,35.2034,9.035,35.1934 C9.695,35.1834,10.195,35.1684,10.535,35.1484 C10.535,35.1484,14.855,34.9084,14.855,34.9084 C15.155,34.8884,15.38,34.8784,15.53,34.8784 C15.68,34.8784,15.805,34.8784,15.905,34.8784 C17.945,34.8784,19.55,35.3684,20.72,36.3484 C21.89,37.3284,22.475,38.6784,22.475,40.3984 C22.475,41.2384,22.31,41.9934,21.98,42.6634 C21.65,43.3334,21.205,43.9034,20.645,44.3734 C20.085,44.8434,19.45,45.2034,18.74,45.4534 C18.03,45.7034,17.285,45.8284,16.505,45.8284 C15.905,45.8284,15.375,45.7434,14.915,45.5734 C14.455,45.4034,14.045,45.1184,13.685,44.7184 C13.685,44.7184,13.805,44.5084,13.805,44.5084 C14.065,44.6084,14.335,44.6734,14.615,44.7034 C14.895,44.7334,15.165,44.7484,15.425,44.7484 C16.505,44.7484,17.4,44.4134,18.11,43.7434 C18.82,43.0734,19.175,42.0084,19.175,40.5484 C19.175,39.3084,18.835,38.2584,18.155,37.3984 C17.475,36.5384,16.425,36.0684,15.005,35.9884 C14.525,35.9684,14.095,35.9684,13.715,35.9884 C13.315,35.9884,12.955,36.0584,12.635,36.1984 C12.635,36.1984,12.635,51.8884,12.635,51.8884 C12.635,52.1884,12.7,52.4234,12.83,52.5934 C12.96,52.7634,13.245,52.8984,13.685,52.9984 C13.685,52.9984,15.635,53.3884,15.635,53.3884 C15.635,53.3884,15.635,54.0784,15.635,54.0784 C14.795,54.0384,14.025,54.0084,13.325,53.9884 C12.625,53.9684,12.025,53.9584,11.525,53.9584 C10.985,53.9584,10.38,53.9634,9.71,53.9734 C9.04,53.9834,8.195,54.0084,7.175,54.0484 C7.175,54.0484,7.175,53.3584,7.175,53.3584 C7.175,53.3584,8.855,53.0584,8.855,53.0584 C9.155,52.9984,9.355,52.8884,9.455,52.7284 C9.555,52.5684,9.605,52.2984,9.605,51.9184 C9.605,51.9184,9.605,38.0884,9.605,38.0884 C9.605,37.3284,9.37,36.8184,8.9,36.5584 C8.43,36.2984,7.655,36.1084,6.575,35.9884 C6.575,35.9884,6.575,35.2084,6.575,35.2084 z M34.385,39.8284 C34.105,38.5084,33.62,37.5434,32.93,36.9334 C32.24,36.3234,31.315,36.0184,30.155,36.0184 C29.695,36.0184,29.255,36.0884,28.835,36.2284 C28.415,36.3684,28.05,36.5584,27.74,36.7984 C27.43,37.0384,27.185,37.3284,27.005,37.6684 C26.825,38.0084,26.735,38.3784,26.735,38.7784 C26.735,39.1984,26.82,39.5684,26.99,39.8884 C27.16,40.2084,27.425,40.5034,27.785,40.7734 C28.145,41.0434,28.6,41.3184,29.15,41.5984 C29.7,41.8784,30.355,42.1984,31.115,42.5584 C32.035,42.9784,32.83,43.3784,33.5,43.7584 C34.17,44.1384,34.72,44.5534,35.15,45.0034 C35.58,45.4534,35.895,45.9634,36.095,46.5334 C36.295,47.1034,36.395,47.7984,36.395,48.6184 C36.395,49.4984,36.23,50.2984,35.9,51.0184 C35.57,51.7384,35.105,52.3534,34.505,52.8634 C33.905,53.3734,33.175,53.7634,32.315,54.0334 C31.455,54.3034,30.505,54.4384,29.465,54.4384 C27.525,54.4384,25.755,53.9684,24.155,53.0284 C24.155,53.0284,24.485,48.3784,24.485,48.3784 C24.485,48.3784,25.055,48.3784,25.055,48.3784 C25.115,49.0784,25.29,49.7234,25.58,50.3134 C25.87,50.9034,26.24,51.4134,26.69,51.8434 C27.14,52.2734,27.65,52.6134,28.22,52.8634 C28.79,53.1134,29.385,53.2384,30.005,53.2384 C30.525,53.2384,31.03,53.1684,31.52,53.0284 C32.01,52.8884,32.44,52.6834,32.81,52.4134 C33.18,52.1434,33.475,51.8084,33.695,51.4084 C33.915,51.0084,34.025,50.5584,34.025,50.0584 C34.025,49.4984,33.93,49.0234,33.74,48.6334 C33.55,48.2434,33.255,47.8884,32.855,47.5684 C32.455,47.2484,31.945,46.9434,31.325,46.6534 C30.705,46.3634,29.975,46.0184,29.135,45.6184 C28.235,45.1984,27.48,44.7734,26.87,44.3434 C26.26,43.9134,25.775,43.4684,25.415,43.0084 C25.055,42.5484,24.795,42.0684,24.635,41.5684 C24.475,41.0684,24.395,40.5484,24.395,40.0084 C24.395,39.1684,24.57,38.4284,24.92,37.7884 C25.27,37.1484,25.735,36.6134,26.315,36.1834 C26.895,35.7534,27.56,35.4334,28.31,35.2234 C29.06,35.0134,29.835,34.9084,30.635,34.9084 C32.375,34.9084,33.825,35.3484,34.985,36.2284 C34.985,36.2284,34.865,39.8284,34.865,39.8284 C34.865,39.8284,34.385,39.8284,34.385,39.8284 z M38.015,53.3584 C38.015,53.3584,39.275,53.1784,39.275,53.1784 C39.855,53.1184,40.24,53.0034,40.43,52.8334 C40.62,52.6634,40.715,52.2584,40.715,51.6184 C40.715,51.6184,40.715,37.9984,40.715,37.9984 C40.715,37.6984,40.7,37.4384,40.67,37.2184 C40.64,36.9984,40.575,36.8134,40.475,36.6634 C40.375,36.5134,40.21,36.3934,39.98,36.3034 C39.75,36.2134,39.445,36.1384,39.065,36.0784 C39.065,36.0784,38.135,35.9584,38.135,35.9584 C38.135,35.8384,38.13,35.7134,38.12,35.5834 C38.11,35.4534,38.105,35.3284,38.105,35.2084 C38.425,35.2084,38.69,35.2084,38.9,35.2084 C39.11,35.2084,39.285,35.2034,39.425,35.1934 C39.565,35.1834,39.695,35.1734,39.815,35.1634 C39.935,35.1534,40.075,35.1484,40.235,35.1484 C40.235,35.1484,44.555,34.9384,44.555,34.9384 C44.775,34.9184,44.995,34.9034,45.215,34.8934 C45.435,34.8834,45.655,34.8784,45.875,34.8784 C46.975,34.8784,47.98,34.9584,48.89,35.1184 C49.8,35.2784,50.58,35.5384,51.23,35.8984 C51.88,36.2584,52.385,36.7384,52.745,37.3384 C53.105,37.9384,53.285,38.6884,53.285,39.5884 C53.285,40.7684,52.97,41.6834,52.34,42.3334 C51.71,42.9834,50.785,43.5984,49.565,44.1784 C49.565,44.1784,52.805,49.7584,52.805,49.7584 C53.265,50.5584,53.665,51.1784,54.005,51.6184 C54.345,52.0584,54.68,52.3884,55.01,52.6084 C55.34,52.8284,55.695,52.9734,56.075,53.0434 C56.455,53.1134,56.905,53.1884,57.425,53.2684 C57.425,53.2684,57.425,53.9884,57.425,53.9884 C57.005,53.9684,56.55,53.9584,56.06,53.9584 C55.57,53.9584,55.045,53.9584,54.485,53.9584 C54.205,53.9584,53.895,53.9584,53.555,53.9584 C53.215,53.9584,52.89,53.9584,52.58,53.9584 C52.27,53.9584,51.985,53.9634,51.725,53.9734 C51.465,53.9834,51.285,53.9884,51.185,53.9884 C51.185,53.9884,46.745,45.6784,46.745,45.6784 C46.365,45.0584,45.865,44.7484,45.245,44.7484 C45.245,44.7484,44.015,44.7484,44.015,44.7484 C44.015,44.7484,44.015,51.4384,44.015,51.4384 C44.015,51.9184,44.11,52.2684,44.3,52.4884 C44.49,52.7084,44.825,52.8784,45.305,52.9984 C45.305,52.9984,46.775,53.3584,46.775,53.3584 C46.775,53.3584,46.775,54.0784,46.775,54.0784 C46.055,54.0384,45.305,54.0084,44.525,53.9884 C43.745,53.9684,42.975,53.9584,42.215,53.9584 C41.455,53.9584,40.715,53.9684,39.995,53.9884 C39.275,54.0084,38.615,54.0384,38.015,54.0784 C38.015,54.0784,38.015,53.3584,38.015,53.3584 z M44.015,43.7284 C46.035,43.8084,47.485,43.5134,48.365,42.8434 C49.245,42.1734,49.685,41.2484,49.685,40.0684 C49.685,38.8084,49.33,37.8234,48.62,37.1134 C47.91,36.4034,46.775,36.0484,45.215,36.0484 C45.055,36.0484,44.86,36.0534,44.63,36.0634 C44.4,36.0734,44.195,36.0884,44.015,36.1084 C44.015,36.1084,44.015,43.7284,44.015,43.7284 z"/>
        </defs>
        <use xlink:href="#3" style="fill:#4b76ff;fill-opacity:1;fill-rule:nonzero;opacity:1;stroke:none;"/>
      </g>
    </defs>
    <use xlink:href="#2"/>
    <defs>
      <title>Flower 8</title>
      <g id="4">
        <defs>
          <path id="5" d="M26.6844,10.558 C25.2963,9.7626,24.6072,7.26851,19.7083,7.14626 C16.0339,7.06522,13.2122,9.38022,13.2122,12.2233 C13.2122,15.1887,16.1942,17.4631,20.1342,17.4631 C20.1342,17.4631,21.8811,17.3709,23.8617,16.6507 C24.2631,16.5048,24.5835,16.5898,24.4777,16.9415 C24.3719,17.293,23.4741,17.3499,23.1162,17.4219 C18.1281,18.4256,17.0496,20.0439,17.0496,22.7242 C17.0496,25.6895,20.507,27.657,24.501,27.657 C28.3347,27.657,31.1043,25.4643,31.1043,22.4179 C31.1043,22.0931,31.0124,21.9547,30.9784,21.4198 C30.9747,21.3618,30.9618,21.1328,31.185,20.9926 C31.2832,20.9309,31.4764,20.9678,31.5566,20.9991 C31.6547,21.0374,31.7345,21.1454,31.7436,21.3617 C31.7538,21.6067,31.5833,22.2964,31.5833,22.5807 C31.5833,25.3015,34.8318,27.6983,38.5062,27.6983 C42.34,27.6983,45.2157,25.5858,45.2157,22.7022 C45.2157,20.5493,43.7779,18.8434,41.0083,17.869 C40.1034,17.5442,39.0536,17.4084,38.5593,17.1788 C38.5023,17.1523,38.3305,16.9967,38.4742,16.877 C38.6036,16.7692,38.8428,16.7937,38.9852,16.8128 C39.8484,16.9282,41.3279,17.6657,43.1917,17.6657 C46.7067,17.6657,49.5446,15.3507,49.5285,12.4671 C49.5102,9.2014,47.0112,7.59669,43.1891,7.35947 C40.8526,7.21446,38.4602,7.63444,36.5893,10.2737 C36.5025,10.3961,36.1349,10.7284,35.8969,10.6802 C35.7067,10.6417,35.68,10.4416,35.7367,10.3142 C36.1243,9.44333,38.2397,8.64954,38.1866,6.25282 C38.1335,3.40972,35.0983,1.05422,31.2636,1.05422 C27.8558,1.05422,24.7675,3.20644,24.6613,5.6842 C24.5541,8.24298,25.4666,8.66074,27.004,10.1926 C27.1231,10.3113,27.1319,10.4711,27.004,10.558 C26.8543,10.6597,26.7291,10.5836,26.6844,10.558 z M31.3708,19.6559 C28.1754,19.6559,25.513,17.6657,25.513,15.2292 C25.513,12.7919,28.1754,10.7613,31.3708,10.7613 C34.5653,10.7613,37.2277,12.7919,37.2277,15.2292 C37.2277,17.6657,34.5653,19.6559,31.3708,19.6559 z"/>
        </defs>
        <use xlink:href="#5" style="fill:#fbdf21;fill-opacity:1;fill-rule:nonzero;opacity:1;stroke:none;"/>
      </g>
    </defs>
    <use xlink:href="#4"/>
  </g>
</svg>
