<?xml version="1.0" encoding="utf-8"?>
<svg x="0pt" y="0pt" width="500pt" height="500pt" viewBox="0 0 500 500" xmlns="http://www.w3.org/2000/svg" xmlns:xlink="http://www.w3.org/1999/xlink">
  <g id="1">
    <title>Layer 1</title>
    <defs>
      <title>Text</title>
      <g id="2">
        <defs>
          <path id="3" d="M52.8492,268.161 C60.6892,268.161,67.2492,268.121,72.5292,268.041 C77.8092,267.961,81.8092,267.841,84.5292,267.681 C84.5292,267.681,119.089,265.761,119.089,265.761 C121.489,265.601,123.289,265.521,124.489,265.521 C125.689,265.521,126.689,265.521,127.489,265.521 C143.809,265.521,156.649,269.441,166.009,277.281 C175.369,285.121,180.049,295.921,180.049,309.681 C180.049,316.401,178.729,322.441,176.089,327.801 C173.449,333.161,169.889,337.721,165.409,341.481 C160.929,345.241,155.849,348.121,150.169,350.121 C144.489,352.121,138.529,353.121,132.289,353.121 C127.489,353.121,123.249,352.441,119.569,351.081 C115.889,349.721,112.609,347.441,109.729,344.241 C109.729,344.241,110.689,342.561,110.689,342.561 C112.769,343.361,114.929,343.881,117.169,344.121 C119.409,344.361,121.569,344.481,123.649,344.481 C132.289,344.481,139.449,341.801,145.129,336.441 C150.809,331.081,153.649,322.561,153.649,310.881 C153.649,300.961,150.929,292.561,145.489,285.681 C140.049,278.801,131.649,275.041,120.289,274.401 C116.449,274.241,113.009,274.241,109.969,274.401 C106.769,274.401,103.889,274.961,101.329,276.081 C101.329,276.081,101.329,401.601,101.329,401.601 C101.329,404.001,101.849,405.881,102.889,407.241 C103.929,408.601,106.209,409.681,109.729,410.481 C109.729,410.481,125.329,413.601,125.329,413.601 C125.329,413.601,125.329,419.121,125.329,419.121 C118.609,418.801,112.449,418.561,106.849,418.401 C101.249,418.241,96.4492,418.161,92.4492,418.161 C88.1292,418.161,83.2892,418.201,77.9292,418.281 C72.5692,418.361,65.8092,418.561,57.6492,418.881 C57.6492,418.881,57.6492,413.361,57.6492,413.361 C57.6492,413.361,71.0892,410.961,71.0892,410.961 C73.4892,410.481,75.0892,409.601,75.8892,408.321 C76.6892,407.041,77.0892,404.881,77.0892,401.841 C77.0892,401.841,77.0892,291.201,77.0892,291.201 C77.0892,285.121,75.2092,281.041,71.4492,278.961 C67.6892,276.881,61.4892,275.361,52.8492,274.401 C52.8492,274.401,52.8492,268.161,52.8492,268.161 z M275.329,305.121 C273.089,294.561,269.209,286.841,263.689,281.961 C258.169,277.081,250.769,274.641,241.489,274.641 C237.809,274.641,234.289,275.201,230.929,276.321 C227.569,277.441,224.649,278.961,222.169,280.881 C219.689,282.801,217.729,285.121,216.289,287.841 C214.849,290.561,214.129,293.521,214.129,296.721 C214.129,300.081,214.809,303.041,216.169,305.601 C217.529,308.161,219.649,310.521,222.529,312.681 C225.409,314.841,229.049,317.041,233.449,319.281 C237.849,321.521,243.089,324.081,249.169,326.961 C256.529,330.321,262.889,333.521,268.249,336.561 C273.609,339.601,278.009,342.921,281.449,346.521 C284.889,350.121,287.409,354.201,289.009,358.761 C290.609,363.321,291.409,368.881,291.409,375.441 C291.409,382.481,290.089,388.881,287.449,394.641 C284.809,400.401,281.089,405.321,276.289,409.401 C271.489,413.481,265.649,416.601,258.769,418.761 C251.889,420.921,244.289,422.001,235.969,422.001 C220.449,422.001,206.289,418.241,193.489,410.721 C193.489,410.721,196.129,373.521,196.129,373.521 C196.129,373.521,200.689,373.521,200.689,373.521 C201.169,379.121,202.569,384.281,204.889,389.001 C207.209,393.721,210.169,397.801,213.769,401.241 C217.369,404.681,221.449,407.401,226.009,409.401 C230.569,411.401,235.329,412.401,240.289,412.401 C244.449,412.401,248.489,411.841,252.409,410.721 C256.329,409.601,259.769,407.961,262.729,405.801 C265.689,403.641,268.049,400.961,269.809,397.761 C271.569,394.561,272.449,390.961,272.449,386.961 C272.449,382.481,271.689,378.681,270.169,375.561 C268.649,372.441,266.289,369.601,263.089,367.041 C259.889,364.481,255.809,362.041,250.849,359.721 C245.889,357.401,240.049,354.641,233.329,351.441 C226.129,348.081,220.089,344.681,215.209,341.241 C210.329,337.801,206.449,334.241,203.569,330.561 C200.689,326.881,198.609,323.041,197.329,319.041 C196.049,315.041,195.409,310.881,195.409,306.561 C195.409,299.841,196.809,293.921,199.609,288.801 C202.409,283.681,206.129,279.401,210.769,275.961 C215.409,272.521,220.729,269.961,226.729,268.281 C232.729,266.601,238.929,265.761,245.329,265.761 C259.249,265.761,270.849,269.281,280.129,276.321 C280.129,276.321,279.169,305.121,279.169,305.121 C279.169,305.121,275.329,305.121,275.329,305.121 z M304.369,413.361 C304.369,413.361,314.449,411.921,314.449,411.921 C319.089,411.441,322.169,410.521,323.689,409.161 C325.209,407.801,325.969,404.561,325.969,399.441 C325.969,399.441,325.969,290.481,325.969,290.481 C325.969,288.081,325.849,286.001,325.609,284.241 C325.369,282.481,324.849,281.001,324.049,279.801 C323.249,278.601,321.929,277.641,320.089,276.921 C318.249,276.201,315.809,275.601,312.769,275.121 C312.769,275.121,305.329,274.161,305.329,274.161 C305.329,273.201,305.289,272.201,305.209,271.161 C305.129,270.121,305.089,269.121,305.089,268.161 C307.649,268.161,309.769,268.161,311.449,268.161 C313.129,268.161,314.529,268.121,315.649,268.041 C316.769,267.961,317.809,267.881,318.769,267.801 C319.729,267.721,320.849,267.681,322.129,267.681 C322.129,267.681,356.689,266.001,356.689,266.001 C358.449,265.841,360.209,265.721,361.969,265.641 C363.729,265.561,365.489,265.521,367.249,265.521 C376.049,265.521,384.089,266.161,391.369,267.441 C398.649,268.721,404.889,270.801,410.089,273.681 C415.289,276.561,419.329,280.401,422.209,285.201 C425.089,290.001,426.529,296.001,426.529,303.201 C426.529,312.641,424.009,319.961,418.969,325.161 C413.929,330.361,406.529,335.281,396.769,339.921 C396.769,339.921,422.689,384.561,422.689,384.561 C426.369,390.961,429.569,395.921,432.289,399.441 C435.009,402.961,437.689,405.601,440.329,407.361 C442.969,409.121,445.809,410.281,448.849,410.841 C451.889,411.401,455.489,412.001,459.649,412.641 C459.649,412.641,459.649,418.401,459.649,418.401 C456.289,418.241,452.649,418.161,448.729,418.161 C444.809,418.161,440.609,418.161,436.129,418.161 C433.889,418.161,431.409,418.161,428.689,418.161 C425.969,418.161,423.369,418.161,420.889,418.161 C418.409,418.161,416.129,418.201,414.049,418.281 C411.969,418.361,410.529,418.401,409.729,418.401 C409.729,418.401,374.209,351.921,374.209,351.921 C371.169,346.961,367.169,344.481,362.209,344.481 C362.209,344.481,352.369,344.481,352.369,344.481 C352.369,344.481,352.369,398.001,352.369,398.001 C352.369,401.841,353.129,404.641,354.649,406.401 C356.169,408.161,358.849,409.521,362.689,410.481 C362.689,410.481,374.449,413.361,374.449,413.361 C374.449,413.361,374.449,419.121,374.449,419.121 C368.689,418.801,362.689,418.561,356.449,418.401 C350.209,418.241,344.049,418.161,337.969,418.161 C331.889,418.161,325.969,418.241,320.209,418.401 C314.449,418.561,309.169,418.801,304.369,419.121 C304.369,419.121,304.369,413.361,304.369,413.361 z M352.369,336.321 C368.529,336.961,380.129,334.601,387.169,329.241 C394.209,323.881,397.729,316.481,397.729,307.041 C397.729,296.961,394.889,289.081,389.209,283.401 C383.529,277.721,374.449,274.881,361.969,274.881 C360.689,274.881,359.129,274.921,357.289,275.001 C355.449,275.081,353.809,275.201,352.369,275.361 C352.369,275.361,352.369,336.321,352.369,336.321 z"/>
        </defs>
        <use xlink:href="#3" style="fill:#4b76ff;fill-opacity:1;fill-rule:nonzero;opacity:1;stroke:none;"/>
      </g>
    </defs>
    <use xlink:href="#2"/>
    <defs>
      <title>Flower 8</title>
      <g id="4">
        <defs>
          <path id="5" d="M217.157,90.477 C207.429,84.4196,202.599,65.4254,168.264,64.4944 C142.511,63.8772,122.734,81.5075,122.734,103.16 C122.734,125.743,143.634,143.065,171.249,143.065 C171.249,143.065,183.492,142.363,197.374,136.877 C200.187,135.766,202.433,136.414,201.691,139.092 C200.949,141.769,194.657,142.202,192.149,142.751 C157.188,150.395,149.629,162.719,149.629,183.131 C149.629,205.715,173.861,220.698,201.854,220.698 C228.724,220.698,248.135,203.999,248.135,180.799 C248.135,178.325,247.491,177.271,247.252,173.198 C247.227,172.756,247.137,171.011,248.701,169.944 C249.389,169.474,250.743,169.755,251.305,169.994 C251.993,170.286,252.552,171.108,252.616,172.755 C252.687,174.621,251.492,179.873,251.492,182.038 C251.492,202.76,274.26,221.012,300.013,221.012 C326.883,221.012,347.039,204.925,347.039,182.964 C347.039,166.568,336.961,153.577,317.55,146.155 C311.208,143.682,303.849,142.648,300.386,140.899 C299.986,140.698,298.782,139.512,299.789,138.601 C300.696,137.78,302.372,137.967,303.37,138.112 C309.42,138.99,319.79,144.607,332.853,144.607 C357.489,144.607,377.379,126.977,377.265,105.016 C377.137,80.1457,359.622,67.9247,332.834,66.1181 C316.459,65.0137,299.691,68.2122,286.578,88.3117 C285.97,89.2445,283.393,91.7749,281.726,91.408 C280.392,91.1145,280.205,89.5905,280.602,88.6202 C283.319,81.9882,298.145,75.9429,297.773,57.6902 C297.401,36.038,276.128,18.0992,249.252,18.0992 C225.367,18.0992,203.722,34.4899,202.978,53.3598 C202.227,72.8467,208.622,76.0282,219.397,87.6946 C220.232,88.5984,220.293,89.815,219.397,90.477 C218.348,91.2521,217.47,90.672,217.157,90.477 z M250.003,159.764 C227.607,159.764,208.947,144.607,208.947,126.051 C208.947,107.49,227.607,92.0251,250.003,92.0251 C272.392,92.0251,291.052,107.49,291.052,126.051 C291.052,144.607,272.392,159.764,250.003,159.764 z"/>
        </defs>
        <use xlink:href="#5" style="fill:#fce022;fill-opacity:1;fill-rule:nonzero;opacity:1;stroke:none;"/>
      </g>
    </defs>
    <use xlink:href="#4"/>
  </g>
</svg>
